<svg width="1000" height="203" viewBox="0 0 1000 203" xmlns="http://www.w3.org/2000/svg">
    <g fill="none" fill-rule="evenodd">
        <g fill="#FFD756" fill-rule="nonzero">
            <path d="m413.352 156.925 8.556-1.355c.505-.08.872-.497.884-1.004l.265-11.46c.012-.481-.3-.895-.768-1.021a1.042 1.042 0 0 0-1.19.493l-2.479 4.355-7.04-6.45a1.02 1.02 0 0 0-.873-.261 1.018 1.018 0 0 0-.75.519l-4.703 8.31-3.704-3.377a1.042 1.042 0 0 0-1.283-.101 1.025 1.025 0 0 0-.415 1.209l3.794 10.817c.168.477.646.761 1.15.681l8.556-1.355zM405.024 159.152l17.342-2.747a.42.42 0 0 1 .473.353l.213 1.344a.42.42 0 0 1-.341.482l-17.341 2.746a.42.42 0 0 1-.474-.352l-.213-1.345a.42.42 0 0 1 .341-.481z"/>
        </g>
        <g opacity=".261" fill="#FFD756" fill-rule="nonzero">
            <path d="m779.36 193.353 5.095.807c.3.047.584-.115.682-.39l2.225-6.227a.587.587 0 0 0-.25-.699.634.634 0 0 0-.763.055l-2.194 1.936-2.822-4.806a.615.615 0 0 0-.448-.302.613.613 0 0 0-.518.149l-4.17 3.699-1.488-2.52a.634.634 0 0 0-.708-.287.587.587 0 0 0-.455.587l.192 6.61a.613.613 0 0 0 .529.581l5.094.807zM774.706 193.025l10.342 1.638a.24.24 0 0 1 .207.268l-.118.743a.24.24 0 0 1-.28.192l-10.342-1.638a.24.24 0 0 1-.206-.27l.117-.742a.24.24 0 0 1 .28-.191z"/>
        </g>
        <path fill="#9CE8FF" d="m270.233 171-4.702 2.472.898-5.236-3.804-3.708 5.257-.764 2.351-4.764 2.352 4.764 5.257.764-3.804 3.708.898 5.236zM223.233 148l-4.702 2.472.898-5.236-3.804-3.708 5.257-.764 2.351-4.764 2.352 4.764 5.257.764-3.804 3.708.898 5.236z"/>
        <path fill="#9CE8FF" opacity=".261" d="m591.352 168.964 3.895 2.048-.744-4.338 3.151-3.071-4.355-.633-1.947-3.946-1.948 3.946-4.355.633 3.152 3.071-.744 4.338z"/>
        <path fill="#3AD452" d="m645.108 140.74-3.334.752 1.43-3.099-1.747-2.932 3.395.4 2.254-2.564.668 3.345 3.14 1.348-2.982 1.668-.314 3.397z"/>
        <path fill="#9CE8FF" d="m379.233 128.5-2.938 1.545.56-3.272-2.377-2.318 3.286-.478 1.47-2.977 1.469 2.977 3.286.478-2.378 2.318.561 3.272zM721.233 144.5l2.94 1.545-.562-3.272 2.378-2.318-3.286-.478-1.47-2.977-1.469 2.977-3.286.478 2.378 2.318-.561 3.272z"/>
        <path fill="#FFD756" d="m314.233 147-4.702 2.472.898-5.236-3.804-3.708 5.257-.764 2.351-4.764 2.352 4.764 5.257.764-3.804 3.708.898 5.236z"/>
        <path fill="#3AD452" opacity=".261" d="m655.135 186.36 3.895 2.047-.744-4.337 3.151-3.072-4.355-.633-1.947-3.946-1.948 3.946-4.355.633 3.152 3.072-.744 4.337z"/>
        <path fill="#FFD756" d="m507.233 150.5-2.938 1.545.56-3.272-2.377-2.318 3.286-.478 1.47-2.977 1.469 2.977 3.286.478-2.378 2.318.561 3.272z"/>
        <path fill="#3AD452" opacity=".261" d="m755.365 166.065 2.435 1.28-.465-2.711 1.97-1.92-2.723-.396-1.217-2.466-1.217 2.466-2.722.396 1.97 1.92-.465 2.71z"/>
        <path fill="#11F5E9" d="m17.41 144.83-4.37 6.168-2.247-7.213-7.227-2.242 6.18-4.362-.097-7.553 6.065 4.518 7.168-2.426-2.43 7.153 4.526 6.054z"/>
        <path fill="#EFBE20" d="m978.138 172 1.973 2.786 1.015-3.258 3.264-1.013-2.79-1.97.043-3.41-2.74 2.04-3.236-1.096 1.097 3.231-2.044 2.734z"/>
        <path fill="#75D527" d="M72.233 122.201 79.612 120l3.621 6.707L81.015 129z"/>
        <path fill="#86D527" d="M138.233 127.201 130.855 125l-3.622 6.707 2.219 2.293z"/>
        <path fill="#D53327" opacity=".261" d="m402.488 170.787 6.112-1.823 3 5.556-1.838 1.899zM657.62 166.646l-6.112-1.824-3 5.556 1.838 1.9z"/>
        <path fill="#86E3A1" opacity=".261" d="m470.413 194.81 6.112-1.824 3 5.556-1.838 1.9z"/>
        <path fill="#86E3A1" d="M913.233 133.201 905.855 131l-3.622 6.707 2.219 2.293z"/>
        <path fill="#D53327" opacity=".261" d="m321.913 168.623 1.677-6.138-5.488-2.904-1.826 1.87z"/>
        <path fill="#D53327" d="m997.55 202.618 2.024-7.41-6.625-3.505-2.204 2.256zM558.58 147.083l-4.853-1.691-2.649 4.242 1.404 1.571zM837.991 136.054l-4.852-1.692-2.649 4.243 1.403 1.571z"/>
        <path fill="#4C9AFF" opacity=".261" d="m494.892 165.577 1.677-6.138-5.488-2.903-1.826 1.869zM726.342 165.577l1.678-6.138-5.488-2.903-1.827 1.869z"/>
        <path fill="#3AD452" opacity=".261" d="m333.735 168.118 3.334-.81 1.636 2.468-1.002.845zM615.374 182.2l-3.334-.81-1.636 2.468 1.002.845z"/>
        <path fill="#8CE8A8" opacity=".261" d="m272.2 176.316 1.012-4.128 4.148.078.46 1.682zM805.479 166.57l-1.012-4.127-4.148.077-.461 1.682z"/>
    </g>
</svg>
